<svg xmlns="http://www.w3.org/2000/svg" xmlns:xlink="http://www.w3.org/1999/xlink" width="100" zoomAndPan="magnify" viewBox="0 0 75 74.999997" height="100" preserveAspectRatio="xMidYMid meet" version="1.0"><defs><g/><clipPath id="952105a52b"><path d="M 7.5 19.386719 L 67.5 19.386719 L 67.5 55.386719 L 7.5 55.386719 Z M 7.5 19.386719 " clip-rule="nonzero"/></clipPath></defs><g clip-path="url(#952105a52b)"><path fill="#000000" d="M 9.636719 38.328125 C 9.652344 37.546875 9.546875 36.765625 9.597656 35.984375 C 9.621094 35.617188 9.722656 35.230469 9.234375 35.242188 C 9.132812 35.246094 9.035156 35.25 8.933594 35.253906 C 8.894531 36.058594 8.800781 36.90625 9.003906 37.683594 C 9.113281 38.121094 9.3125 38.285156 9.636719 38.328125 Z M 12.71875 45.789062 C 12.929688 44.945312 13.070312 43.027344 12.1875 42.6875 C 12.183594 42.921875 12.179688 43.15625 12.191406 43.390625 C 12.222656 44.15625 12.273438 44.914062 12.3125 45.675781 C 12.449219 45.710938 12.578125 45.75 12.71875 45.789062 Z M 19.515625 51.09375 C 19.609375 50.78125 19.664062 50.460938 19.707031 50.136719 C 17.828125 49.835938 15.984375 49.324219 14.109375 49.007812 C 14.109375 49.324219 14.109375 49.59375 14.109375 49.730469 C 15.886719 50.285156 17.683594 50.753906 19.496094 51.183594 C 19.5 51.152344 19.507812 51.125 19.515625 51.09375 Z M 20.847656 45.789062 C 20.855469 45.660156 20.875 45.53125 20.898438 45.402344 C 18.601562 45.285156 16.082031 44.925781 13.894531 44.164062 C 13.898438 44.253906 13.902344 44.347656 13.90625 44.433594 C 16.011719 45.34375 18.550781 45.800781 20.847656 45.789062 Z M 21.003906 47.902344 C 20.9375 47.558594 20.882812 47.1875 20.851562 46.816406 C 18.527344 46.828125 16.011719 46.371094 13.832031 45.503906 C 13.796875 45.714844 13.757812 45.910156 13.703125 46.082031 C 16.0625 46.800781 18.535156 47.613281 21.003906 47.902344 Z M 23.085938 51.800781 C 23.097656 51.503906 23.136719 51.1875 23.070312 50.90625 C 23.011719 50.683594 22.871094 50.75 22.609375 50.769531 C 22.332031 50.792969 22.152344 50.773438 22.054688 51.042969 C 21.980469 51.253906 21.917969 51.46875 21.863281 51.683594 C 22.28125 51.75 22.683594 51.789062 23.085938 51.800781 Z M 22.972656 38.324219 C 23.183594 38.167969 23.351562 37.976562 23.484375 37.761719 C 20.011719 37.148438 16.425781 37.285156 12.894531 37.328125 C 12.875 37.484375 12.855469 37.640625 12.832031 37.800781 C 14.464844 37.992188 16.097656 38.199219 17.738281 38.332031 C 18.578125 38.402344 19.421875 38.46875 20.265625 38.496094 C 20.980469 38.519531 22.351562 38.777344 22.972656 38.324219 Z M 24.144531 35.144531 C 24.308594 33.964844 24.460938 32.773438 24.679688 31.59375 C 22.695312 31.449219 20.75 31.152344 18.746094 31.164062 C 17.835938 31.167969 14.871094 30.683594 14.105469 31.398438 C 13.386719 32.828125 13.195312 34.699219 13.019531 36.300781 C 16.65625 36.257812 20.308594 36.144531 23.882812 36.792969 C 24.023438 36.242188 24.074219 35.65625 24.144531 35.144531 Z M 25.054688 42.871094 C 25.042969 42.40625 25.039062 41.949219 25.035156 41.488281 C 24.378906 41.566406 23.675781 41.445312 23.191406 41.164062 C 22.617188 40.828125 23.136719 39.941406 23.710938 40.277344 C 24.105469 40.507812 25.238281 40.65625 25.566406 40.210938 C 24.679688 39.835938 24.78125 38.8125 24.71875 37.804688 C 24.714844 37.726562 24.710938 37.644531 24.707031 37.5625 C 24.515625 38.128906 24.234375 38.671875 23.753906 39.019531 C 22.464844 39.960938 20.480469 39.558594 19 39.453125 C 16.894531 39.308594 14.796875 39.058594 12.703125 38.8125 C 12.6875 38.8125 12.679688 38.804688 12.671875 38.804688 C 12.640625 38.984375 12.605469 39.167969 12.574219 39.355469 C 13.234375 39.648438 13.921875 39.777344 14.546875 39.882812 C 15.265625 40.003906 15.9375 40.054688 16.542969 40.109375 C 17.757812 40.214844 18.699219 40.355469 19.410156 40.433594 C 20.125 40.511719 20.613281 40.546875 20.929688 40.554688 C 21.246094 40.570312 21.386719 40.597656 21.390625 40.632812 C 21.390625 40.671875 21.257812 40.707031 20.9375 40.753906 C 20.621094 40.808594 20.109375 40.828125 19.382812 40.796875 C 18.648438 40.761719 17.714844 40.664062 16.503906 40.582031 C 15.894531 40.535156 15.21875 40.5 14.46875 40.382812 C 13.855469 40.285156 13.179688 40.164062 12.488281 39.875 C 12.394531 40.457031 12.308594 41.042969 12.253906 41.628906 C 12.984375 41.75 13.433594 42.292969 13.671875 42.996094 C 15.988281 43.890625 18.75 44.289062 21.21875 44.394531 C 21.230469 44.394531 21.238281 44.398438 21.253906 44.398438 C 22.078125 43 23.554688 43.128906 24.976562 42.875 C 25.007812 42.871094 25.027344 42.871094 25.054688 42.871094 Z M 25.074219 44.257812 C 25.074219 44.136719 25.066406 44.015625 25.066406 43.890625 C 24.09375 44.019531 22.582031 43.933594 22.144531 44.914062 C 21.722656 45.859375 21.867188 47.007812 22.070312 47.996094 C 22.519531 48.019531 22.964844 48.015625 23.410156 47.996094 C 23.414062 47.984375 23.414062 47.972656 23.414062 47.964844 C 23.679688 46.648438 23.027344 44.292969 25.074219 44.257812 Z M 25.171875 47.777344 C 25.148438 46.945312 25.125 46.113281 25.101562 45.285156 C 24.230469 45.332031 24.457031 47.015625 24.4375 47.902344 C 24.679688 47.871094 24.925781 47.828125 25.171875 47.777344 Z M 25.238281 51.542969 C 25.238281 50.628906 25.21875 49.722656 25.199219 48.808594 C 20.894531 49.609375 16.464844 47.9375 12.359375 46.753906 C 12.363281 46.84375 12.371094 46.929688 12.371094 47.015625 C 12.390625 47.765625 12.609375 48.492188 12.574219 49.230469 C 12.742188 49.289062 12.90625 49.34375 13.074219 49.402344 C 13.074219 49.164062 13.074219 48.878906 13.074219 48.46875 C 13.074219 48.21875 13.214844 48.0625 13.390625 47.996094 C 13.492188 47.933594 13.613281 47.898438 13.757812 47.917969 C 15.96875 48.234375 18.113281 48.886719 20.324219 49.199219 C 20.476562 49.222656 20.578125 49.292969 20.632812 49.390625 C 20.738281 49.480469 20.800781 49.613281 20.789062 49.753906 C 20.722656 50.296875 20.667969 50.839844 20.511719 51.371094 C 20.507812 51.386719 20.5 51.398438 20.492188 51.410156 C 20.535156 51.421875 20.570312 51.425781 20.609375 51.4375 C 20.691406 51.453125 20.765625 51.472656 20.851562 51.488281 C 20.957031 51.035156 21.074219 50.542969 21.371094 50.183594 C 21.683594 49.8125 22.257812 49.75 22.714844 49.738281 C 23.226562 49.726562 23.707031 49.832031 23.957031 50.324219 C 24.175781 50.761719 24.121094 51.277344 24.113281 51.757812 C 24.476562 51.722656 24.851562 51.648438 25.238281 51.542969 Z M 26.988281 37.847656 C 27.019531 37.308594 27.164062 36.5 26.398438 36.542969 C 25.554688 36.597656 25.726562 37.316406 25.761719 37.960938 C 25.785156 38.289062 25.667969 38.804688 25.820312 39.101562 C 25.84375 39.097656 25.867188 39.09375 25.890625 39.09375 C 26.273438 39.109375 26.679688 39.171875 26.824219 38.734375 C 26.917969 38.445312 26.96875 38.148438 26.988281 37.847656 Z M 28.320312 50.832031 C 28.304688 50.65625 28.300781 50.476562 28.316406 50.300781 C 27.628906 50.398438 26.941406 50.546875 26.261719 50.691406 C 26.265625 50.890625 26.269531 51.089844 26.269531 51.289062 C 26.953125 51.136719 27.644531 51.011719 28.320312 50.832031 Z M 29.074219 53.140625 C 28.902344 52.707031 28.792969 52.253906 28.726562 51.792969 C 28.640625 51.820312 28.554688 51.84375 28.460938 51.871094 C 28.609375 52.367188 28.796875 52.796875 29.074219 53.140625 Z M 29.933594 24.820312 C 31.503906 23.964844 33.125 23.183594 34.859375 22.746094 C 31.632812 21.976562 27.914062 22.277344 24.671875 22.269531 C 24.652344 22.28125 24.632812 22.289062 24.605469 22.296875 C 21.660156 23.128906 19.058594 25.445312 17.785156 28.21875 C 19.3125 28.222656 20.894531 28.453125 22.402344 28.503906 C 23.085938 28.53125 23.765625 28.578125 24.445312 28.628906 C 24.484375 28.582031 24.53125 28.535156 24.597656 28.496094 C 26.464844 27.386719 28.007812 25.871094 29.933594 24.820312 Z M 33.800781 35.941406 C 33.785156 35.605469 33.777344 35.273438 33.773438 34.945312 C 33.738281 34.5 33.742188 34.046875 33.757812 33.597656 C 33.75 33.179688 33.742188 32.765625 33.730469 32.351562 C 33.679688 31.152344 32.003906 31.390625 31.09375 31.472656 C 30.226562 31.546875 29.183594 31.488281 28.375 31.828125 C 27.199219 32.320312 27.296875 34.566406 27.273438 35.738281 C 28.011719 36.152344 28.117188 37.054688 28.007812 38.023438 C 27.945312 38.558594 27.875 39.304688 27.4375 39.691406 C 27.203125 39.898438 26.953125 40.011719 26.683594 40.066406 C 26.675781 40.207031 26.652344 40.335938 26.613281 40.457031 C 28.480469 39.496094 30.15625 38.246094 31.945312 37.132812 C 32.542969 36.757812 33.558594 36.585938 33.800781 35.941406 Z M 34.386719 53.039062 C 35.421875 51.929688 35.90625 50.410156 35.507812 48.875 C 35.039062 47.058594 33.71875 46.554688 31.976562 46.53125 C 31.804688 46.648438 31.648438 46.769531 31.5 46.910156 C 30.992188 47.398438 30.378906 48.035156 29.929688 48.742188 C 29.695312 49.78125 29.550781 50.949219 29.792969 51.988281 C 30.011719 52.921875 30.570312 53.675781 31.292969 54.019531 C 32.472656 54.074219 33.539062 53.792969 34.386719 53.039062 Z M 35.566406 24.914062 C 35.59375 24.484375 35.609375 24.058594 35.609375 23.628906 C 33.585938 24.058594 31.667969 24.964844 29.90625 26.023438 C 28.542969 26.839844 27.347656 27.875 26.054688 28.773438 C 26.277344 28.792969 26.492188 28.8125 26.710938 28.835938 L 26.695312 28.808594 C 27.355469 28.363281 27.957031 27.953125 28.507812 27.582031 C 28.78125 27.390625 29.058594 27.226562 29.316406 27.0625 C 29.570312 26.902344 29.816406 26.75 30.066406 26.625 C 30.3125 26.5 30.542969 26.378906 30.765625 26.265625 C 30.984375 26.15625 31.214844 26.101562 31.417969 26.019531 C 31.832031 25.867188 32.199219 25.792969 32.511719 25.703125 C 33.773438 25.410156 34.25 25.320312 34.277344 25.390625 C 34.296875 25.453125 33.839844 25.671875 32.613281 26.054688 C 32.3125 26.164062 31.953125 26.257812 31.570312 26.421875 C 31.378906 26.503906 31.164062 26.566406 30.953125 26.675781 C 30.746094 26.792969 30.53125 26.914062 30.296875 27.042969 C 30.0625 27.160156 29.828125 27.316406 29.578125 27.480469 C 29.332031 27.644531 29.0625 27.804688 28.792969 27.996094 C 28.382812 28.285156 27.9375 28.585938 27.460938 28.914062 C 27.539062 28.925781 27.617188 28.929688 27.695312 28.9375 C 27.742188 28.941406 27.785156 28.953125 27.828125 28.96875 C 29.25 28.761719 30.671875 28.722656 32.109375 28.660156 C 33.160156 28.617188 34.214844 28.324219 35.265625 28.414062 C 35.28125 28.417969 35.300781 28.421875 35.316406 28.425781 C 35.347656 27.417969 35.457031 26.417969 35.535156 25.414062 C 35.332031 25.410156 35.171875 25.421875 35.0625 25.414062 C 34.898438 25.414062 34.816406 25.371094 34.789062 25.304688 C 34.765625 25.242188 34.800781 25.160156 34.96875 25.0625 C 35.089844 25 35.285156 24.925781 35.566406 24.914062 Z M 36.550781 44.300781 C 36.542969 40.667969 36.421875 36.917969 36.320312 33.207031 C 36.289062 31.953125 36.363281 29.21875 34.472656 29.4375 C 32.28125 29.695312 30.054688 29.644531 27.875 29.988281 C 27.761719 30.007812 27.664062 29.988281 27.574219 29.953125 C 25.632812 29.75 23.71875 29.550781 21.769531 29.511719 C 20.113281 29.476562 18.417969 29.144531 16.773438 29.28125 C 16.71875 29.285156 16.667969 29.277344 16.621094 29.273438 C 16.035156 29.421875 15.546875 29.683594 15.144531 30.027344 C 15.960938 30.003906 16.835938 30.152344 17.503906 30.148438 C 20.140625 30.128906 22.667969 30.464844 25.289062 30.609375 C 25.636719 30.628906 25.855469 30.917969 25.789062 31.257812 C 25.460938 32.835938 25.351562 34.445312 25.0625 36.027344 C 25.066406 36.027344 25.066406 36.027344 25.066406 36.027344 C 25.378906 35.734375 25.808594 35.550781 26.246094 35.519531 C 26.28125 34.125 26.292969 32.1875 27.304688 31.257812 C 28.179688 30.460938 29.988281 30.472656 31.09375 30.449219 C 32.195312 30.421875 33.867188 30.078125 34.546875 31.164062 C 34.785156 31.550781 34.785156 32.117188 34.757812 32.601562 C 34.789062 32.667969 34.804688 32.742188 34.804688 32.828125 C 34.800781 33.914062 35.097656 35.203125 34.949219 36.257812 C 34.859375 36.917969 34.339844 37.164062 33.742188 37.390625 C 30.996094 38.445312 28.800781 40.671875 26.070312 41.847656 C 26.09375 44.449219 26.191406 47.046875 26.246094 49.648438 C 27.011719 49.484375 27.777344 49.335938 28.554688 49.242188 C 28.664062 48.949219 28.800781 48.660156 28.960938 48.378906 C 28.964844 48.359375 28.96875 48.328125 28.976562 48.304688 C 29.007812 48.15625 29.089844 48.0625 29.1875 48.003906 C 29.582031 47.402344 30.066406 46.855469 30.539062 46.402344 C 32.183594 44.835938 34.394531 44.621094 36.550781 44.300781 Z M 36.464844 51.445312 C 36.628906 51.445312 36.792969 51.445312 36.957031 51.449219 C 36.953125 50.496094 36.863281 49.550781 36.761719 48.597656 C 36.628906 47.308594 36.601562 46.328125 35.433594 45.550781 C 35.402344 45.53125 35.375 45.503906 35.347656 45.480469 C 34.835938 45.550781 34.316406 45.640625 33.820312 45.761719 C 35.292969 46.199219 36.277344 47.226562 36.585938 49.074219 C 36.710938 49.847656 36.667969 50.664062 36.464844 51.445312 Z M 39.039062 32.125 C 39.050781 28.753906 39.074219 25.382812 39.082031 22.011719 C 38.167969 22.132812 37.25 22.160156 36.328125 22.144531 C 36.335938 22.152344 36.339844 22.160156 36.347656 22.167969 C 36.480469 22.246094 36.582031 22.378906 36.597656 22.570312 C 36.789062 24.726562 36.335938 26.855469 36.339844 29.007812 C 36.796875 29.535156 37.046875 30.308594 37.144531 30.902344 C 37.417969 32.554688 37.316406 34.195312 37.414062 35.851562 C 37.5625 38.367188 37.582031 41.007812 37.585938 43.421875 C 38.0625 43.550781 38.539062 43.664062 39.023438 43.746094 C 38.773438 39.902344 39.023438 35.960938 39.039062 32.125 Z M 39.085938 21.496094 C 39.085938 21.140625 39.089844 20.78125 39.089844 20.425781 C 34.511719 20.945312 29.957031 20.800781 25.351562 20.777344 C 25.324219 20.933594 25.308594 21.085938 25.300781 21.242188 C 28.191406 21.21875 31.355469 21.035156 34.242188 21.566406 C 35.859375 21.640625 37.480469 21.722656 39.085938 21.496094 Z M 40.300781 45.949219 C 40.289062 45.917969 40.285156 45.886719 40.28125 45.847656 C 40.242188 45.441406 40.222656 45.035156 40.199219 44.628906 C 39.992188 44.679688 39.78125 44.738281 39.582031 44.804688 C 39.578125 44.804688 39.570312 44.804688 39.570312 44.804688 C 39.566406 44.808594 39.554688 44.808594 39.550781 44.808594 C 39.4375 44.84375 39.3125 44.839844 39.226562 44.808594 C 38.660156 44.734375 38.1875 44.621094 37.5 44.484375 C 37.5 44.558594 37.5 44.632812 37.5 44.710938 C 37.5 44.917969 37.449219 45.058594 37.316406 45.140625 C 37.253906 45.191406 37.222656 45.230469 37.121094 45.246094 C 36.996094 45.265625 36.863281 45.285156 36.730469 45.300781 C 37.027344 45.609375 37.253906 45.945312 37.421875 46.347656 C 38.390625 46.292969 39.347656 46.140625 40.300781 45.949219 Z M 41.304688 45.734375 C 41.453125 45.703125 41.597656 45.675781 41.742188 45.640625 C 41.707031 45.570312 41.6875 45.488281 41.6875 45.394531 C 41.6875 45.128906 41.683594 44.726562 41.675781 44.332031 C 41.523438 44.355469 41.371094 44.382812 41.21875 44.40625 C 41.25 44.851562 41.269531 45.292969 41.304688 45.734375 Z M 49.332031 44.171875 C 49.394531 43.828125 49.386719 43.46875 49.414062 43.113281 C 47.570312 43.40625 45.726562 43.703125 43.882812 44.007812 C 43.496094 44.074219 43.101562 44.128906 42.699219 44.179688 C 42.714844 44.625 42.71875 45.101562 42.71875 45.394531 C 42.71875 45.402344 42.714844 45.414062 42.714844 45.425781 C 43.402344 45.277344 44.089844 45.136719 44.78125 45.035156 C 46.300781 44.8125 47.816406 44.617188 49.324219 44.367188 C 49.316406 44.300781 49.316406 44.238281 49.332031 44.171875 Z M 51.035156 44.050781 C 51.046875 43.652344 51.074219 43.253906 51.019531 42.863281 C 50.832031 42.890625 50.644531 42.921875 50.460938 42.953125 C 50.457031 42.957031 50.460938 42.964844 50.460938 42.972656 C 50.414062 43.375 50.40625 43.777344 50.359375 44.179688 C 50.585938 44.140625 50.808594 44.097656 51.035156 44.050781 Z M 51.554688 45.3125 C 51.550781 45.207031 51.546875 45.097656 51.546875 44.988281 C 49.1875 45.484375 46.796875 45.730469 44.414062 46.125 C 42.15625 46.496094 39.964844 47.1875 37.679688 47.355469 C 37.707031 47.527344 37.734375 47.703125 37.757812 47.878906 C 38.996094 47.78125 40.242188 47.320312 41.457031 47.078125 C 42.734375 46.820312 44.011719 46.496094 45.300781 46.273438 C 47.367188 45.925781 49.527344 45.828125 51.554688 45.3125 Z M 51.683594 46.800781 C 51.664062 46.648438 51.644531 46.5 51.628906 46.347656 C 49.246094 46.929688 46.738281 46.964844 44.347656 47.511719 C 42.285156 47.984375 40.011719 48.738281 37.882812 48.898438 C 37.902344 49.121094 37.929688 49.347656 37.945312 49.574219 C 40.410156 49.527344 42.816406 48.773438 45.238281 48.390625 C 47.46875 48.039062 49.535156 47.414062 51.683594 46.800781 Z M 52.980469 42.554688 C 52.886719 42.570312 52.792969 42.582031 52.699219 42.597656 C 52.480469 42.632812 52.257812 42.664062 52.039062 42.703125 C 52.085938 43.074219 52.078125 43.453125 52.070312 43.832031 C 52.109375 43.828125 52.148438 43.828125 52.1875 43.832031 C 52.277344 43.59375 52.378906 43.363281 52.511719 43.15625 C 52.65625 42.917969 52.8125 42.722656 52.980469 42.554688 Z M 54.363281 48.832031 C 53.941406 48.199219 53.898438 47.230469 53.8125 46.53125 C 53.71875 45.457031 53.941406 43.953125 54.617188 42.875 C 53.867188 43.078125 53.292969 43.527344 53.058594 44.554688 C 52.847656 45.515625 52.78125 46.589844 53.050781 47.546875 C 53.253906 48.265625 53.746094 48.644531 54.363281 48.832031 Z M 57.976562 48.59375 C 58.8125 47.535156 59.007812 45.6875 58.710938 44.398438 C 58.367188 42.894531 56.554688 41.722656 55.550781 43.402344 C 54.984375 44.355469 54.746094 45.433594 54.847656 46.53125 C 54.910156 47.085938 54.945312 48.269531 55.542969 48.554688 C 55.882812 48.714844 56.410156 48.90625 56.910156 48.945312 C 57.117188 48.929688 57.3125 48.910156 57.492188 48.902344 C 57.6875 48.847656 57.851562 48.75 57.976562 48.59375 Z M 59.820312 45.695312 C 60.417969 45.71875 60.160156 44.371094 60.128906 44 C 60.058594 43.078125 59.699219 42.390625 59.125 41.703125 C 58.78125 41.75 58.4375 41.800781 58.09375 41.847656 C 59.109375 42.425781 59.742188 43.714844 59.808594 44.929688 C 59.824219 45.15625 59.828125 45.421875 59.820312 45.695312 Z M 61.984375 43.464844 C 62.070312 43.066406 62.070312 42.621094 62.019531 42.214844 C 61.980469 41.914062 61.164062 41.921875 60.523438 41.960938 C 60.820312 42.492188 61.015625 43.046875 61.121094 43.644531 C 61.28125 43.636719 61.441406 43.632812 61.605469 43.613281 C 61.722656 43.601562 61.847656 43.582031 61.960938 43.539062 C 61.96875 43.535156 61.972656 43.535156 61.976562 43.535156 C 61.976562 43.527344 61.976562 43.5 61.984375 43.464844 Z M 65.605469 39.496094 C 65.679688 39.292969 65.722656 39.058594 65.746094 38.808594 C 57.152344 40.066406 48.601562 41.625 40.007812 42.886719 C 40.019531 43.125 40.035156 43.363281 40.050781 43.605469 C 41.296875 43.292969 42.644531 43.175781 43.882812 42.976562 C 46.84375 42.488281 49.8125 42.019531 52.78125 41.550781 C 57.007812 40.886719 61.441406 40.519531 65.605469 39.496094 Z M 65.777344 38.324219 C 65.796875 37.371094 65.636719 36.292969 65.652344 35.519531 C 65.679688 33.847656 65.691406 32.175781 65.671875 30.503906 C 65.628906 27.65625 65.730469 24.871094 65.996094 22.054688 C 57.367188 22.027344 48.742188 21.789062 40.117188 21.761719 C 40.109375 25.214844 40.082031 28.671875 40.070312 32.125 C 40.054688 35.507812 39.859375 38.972656 39.984375 42.375 C 48.550781 41.113281 57.074219 39.5625 65.640625 38.308594 C 65.691406 38.300781 65.738281 38.308594 65.777344 38.324219 Z M 66.046875 21.542969 C 66.070312 21.34375 66.089844 21.140625 66.109375 20.941406 C 61.792969 20.914062 57.472656 20.785156 53.152344 20.699219 C 48.835938 20.617188 44.433594 20.757812 40.121094 20.429688 C 40.121094 20.703125 40.117188 20.972656 40.117188 21.246094 C 48.761719 21.277344 57.402344 21.515625 66.046875 21.542969 Z M 66.742188 19.921875 C 67.203125 19.921875 67.34375 20.417969 67.164062 20.722656 C 66.75 24.425781 66.707031 28.054688 66.710938 31.777344 C 66.714844 33.617188 66.582031 35.472656 66.640625 37.304688 C 66.667969 38.128906 66.886719 39.003906 66.59375 39.804688 C 66.582031 39.832031 66.570312 39.859375 66.550781 39.882812 C 66.582031 40.109375 66.476562 40.347656 66.191406 40.417969 C 64.941406 40.734375 63.671875 40.984375 62.386719 41.203125 C 62.757812 41.394531 63.019531 41.726562 63.0625 42.3125 C 63.074219 42.527344 63.089844 42.765625 63.085938 43.007812 C 63.414062 43 63.742188 43 63.992188 43 C 64.675781 43 64.675781 44.027344 63.992188 44.027344 C 63.679688 44.027344 63.25 44.027344 62.855469 44.042969 C 62.824219 44.097656 62.796875 44.148438 62.757812 44.195312 C 62.417969 44.628906 61.765625 44.648438 61.21875 44.664062 C 61.21875 44.742188 61.226562 44.816406 61.226562 44.894531 C 61.214844 45.941406 60.804688 46.746094 59.746094 46.703125 C 59.570312 48.136719 59.035156 49.636719 57.683594 49.882812 C 57.640625 49.894531 57.589844 49.894531 57.539062 49.898438 C 57.492188 49.902344 57.449219 49.882812 57.402344 49.882812 C 57.398438 49.882812 57.390625 49.835938 57.386719 49.835938 C 57.382812 49.835938 57.375 49.835938 57.367188 49.835938 C 55.089844 50.179688 52.777344 50.011719 52.070312 47.710938 C 49.671875 48.386719 47.375 49.085938 44.890625 49.476562 C 42.582031 49.835938 40.339844 50.542969 37.988281 50.597656 C 38 51.066406 38 51.527344 37.988281 51.976562 C 37.980469 52.265625 37.773438 52.425781 37.546875 52.464844 C 37.496094 52.476562 37.445312 52.484375 37.386719 52.484375 C 36.953125 52.484375 36.519531 52.46875 36.089844 52.460938 C 36.070312 52.503906 36.046875 52.546875 36.023438 52.585938 C 36.015625 52.660156 35.988281 52.730469 35.9375 52.800781 C 35.875 52.898438 35.808594 52.984375 35.738281 53.074219 C 35.355469 53.660156 34.851562 54.164062 34.238281 54.527344 C 33.25 55.113281 31.949219 55.371094 30.875 55.019531 C 30.867188 55.019531 30.859375 55.019531 30.847656 55.019531 C 28.9375 54.742188 27.976562 53.886719 27.472656 52.148438 C 26.53125 52.40625 25.566406 52.644531 24.648438 52.828125 C 23.382812 53.074219 22.160156 52.839844 20.917969 52.558594 C 17.886719 51.871094 14.929688 51.140625 11.992188 50.117188 C 11.84375 50.066406 11.742188 49.96875 11.691406 49.855469 C 11.574219 49.777344 11.503906 49.644531 11.527344 49.453125 C 11.597656 48.824219 11.367188 48.269531 11.355469 47.652344 C 11.335938 46.820312 11.410156 45.96875 11.3125 45.140625 C 11.148438 43.765625 11.15625 42.460938 11.3125 41.089844 C 11.386719 40.449219 11.46875 39.8125 11.554688 39.175781 C 10.402344 39.433594 8.800781 39.691406 8.253906 38.621094 C 7.671875 37.472656 7.902344 36.089844 7.914062 34.851562 C 7.914062 34.796875 7.925781 34.746094 7.941406 34.699219 C 7.972656 34.472656 8.136719 34.261719 8.429688 34.253906 C 9.171875 34.226562 10.398438 34.078125 10.589844 35.085938 C 10.6875 35.613281 10.59375 36.125 10.613281 36.65625 C 10.640625 37.199219 10.679688 37.734375 10.671875 38.273438 C 11.015625 38.226562 11.363281 38.160156 11.707031 38.085938 C 11.863281 36.960938 12.03125 35.839844 12.175781 34.714844 C 12.351562 33.402344 12.648438 32.109375 13.1875 31.019531 C 13.195312 30.917969 13.234375 30.820312 13.3125 30.726562 C 13.332031 30.699219 13.359375 30.679688 13.382812 30.65625 C 14.070312 29.457031 15.09375 28.550781 16.667969 28.226562 C 18.023438 25.007812 20.875 22.3125 24.265625 21.328125 C 24.277344 20.953125 24.324219 20.582031 24.402344 20.210938 C 24.417969 20.140625 24.453125 20.078125 24.5 20.023438 C 24.519531 19.976562 24.550781 19.929688 24.589844 19.894531 C 24.632812 19.808594 24.691406 19.753906 24.773438 19.753906 C 24.804688 19.753906 24.832031 19.761719 24.855469 19.765625 C 24.882812 19.761719 24.914062 19.761719 24.945312 19.761719 C 29.804688 19.773438 34.605469 19.972656 39.433594 19.386719 C 39.441406 19.386719 39.445312 19.386719 39.453125 19.386719 C 39.492188 19.386719 39.527344 19.40625 39.566406 19.40625 C 44.054688 19.75 48.652344 19.609375 53.152344 19.695312 C 57.679688 19.785156 62.210938 19.902344 66.742188 19.921875 " fill-opacity="1" fill-rule="nonzero"/></g><path fill="#000000" d="M 64.980469 31.203125 C 65.058594 31.210938 65.089844 31.921875 65.082031 33.066406 C 65.074219 33.636719 65.058594 34.320312 65.03125 35.078125 C 65.019531 35.460938 64.996094 35.84375 64.988281 36.257812 C 64.980469 36.46875 64.992188 36.675781 64.90625 36.960938 C 64.875 37.089844 64.765625 37.25 64.652344 37.347656 C 64.597656 37.390625 64.535156 37.4375 64.472656 37.476562 L 64.292969 37.5625 C 63.414062 37.886719 62.582031 38.035156 61.820312 38.128906 C 61.054688 38.230469 60.367188 38.285156 59.796875 38.324219 C 58.652344 38.40625 57.941406 38.464844 57.929688 38.382812 C 57.914062 38.308594 58.601562 38.101562 59.746094 37.917969 C 60.3125 37.832031 60.992188 37.722656 61.738281 37.605469 C 62.476562 37.488281 63.300781 37.3125 64.070312 37.027344 L 64.1875 36.980469 C 64.214844 36.957031 64.238281 36.933594 64.269531 36.917969 C 64.300781 36.898438 64.300781 36.871094 64.320312 36.855469 C 64.339844 36.839844 64.351562 36.808594 64.359375 36.773438 C 64.40625 36.652344 64.414062 36.429688 64.421875 36.238281 C 64.4375 35.824219 64.472656 35.414062 64.5 35.042969 C 64.554688 34.289062 64.613281 33.613281 64.671875 33.039062 C 64.789062 31.90625 64.898438 31.203125 64.980469 31.203125 " fill-opacity="1" fill-rule="nonzero"/><path fill="#000000" d="M 59.921875 22.5625 C 62.347656 22.601562 64.289062 22.75 64.292969 22.914062 C 64.292969 23.070312 62.324219 23.179688 59.921875 23.136719 C 57.546875 23.109375 55.574219 23.21875 55.5625 23.042969 C 55.554688 22.902344 57.472656 22.535156 59.921875 22.5625 " fill-opacity="1" fill-rule="nonzero"/><path fill="#000000" d="M 57.433594 46.386719 C 57.59375 45.917969 57.757812 45.230469 57.441406 44.789062 C 56.988281 44.160156 56.539062 44.890625 56.460938 45.335938 C 56.367188 45.832031 56.339844 46.640625 56.699219 47.054688 C 57.035156 47.367188 57.347656 46.636719 57.433594 46.386719 Z M 58.195312 44.089844 C 59.34375 45.425781 57.867188 49.332031 56.085938 47.875 C 56.046875 47.847656 56.003906 47.820312 55.972656 47.78125 C 55.914062 47.722656 55.871094 47.664062 55.847656 47.601562 C 55.246094 46.75 55.234375 45.394531 55.652344 44.484375 C 56.121094 43.464844 57.429688 43.203125 58.195312 44.089844 " fill-opacity="1" fill-rule="nonzero"/><path fill="#000000" d="M 47.003906 40.003906 C 48.320312 39.851562 49.140625 39.800781 49.15625 39.882812 C 49.15625 39.960938 48.359375 40.15625 47.066406 40.410156 C 46.417969 40.53125 45.644531 40.671875 44.777344 40.820312 C 44.351562 40.890625 43.898438 40.964844 43.429688 41.042969 C 42.976562 41.128906 42.496094 41.253906 41.960938 41.316406 C 41.691406 41.355469 41.398438 41.351562 41.109375 41.316406 L 40.871094 41.289062 L 40.867188 41.042969 C 40.828125 39.199219 40.914062 37.582031 40.949219 36.421875 C 40.972656 35.253906 40.988281 34.542969 41.066406 34.539062 C 41.140625 34.539062 41.257812 35.242188 41.339844 36.40625 C 41.402344 37.527344 41.390625 39.0625 41.4375 40.761719 C 41.585938 40.765625 41.738281 40.765625 41.902344 40.742188 C 42.371094 40.6875 42.847656 40.566406 43.332031 40.488281 C 43.800781 40.421875 44.261719 40.355469 44.699219 40.292969 C 45.5625 40.175781 46.34375 40.078125 47.003906 40.003906 " fill-opacity="1" fill-rule="nonzero"/><path fill="#000000" d="M 51.128906 22.914062 C 51.125 23.066406 48.050781 23.210938 44.203125 23.1875 C 43.171875 23.132812 42.230469 22.953125 41.421875 23.023438 C 41.386719 23.226562 41.355469 23.429688 41.324219 23.625 C 41.277344 23.875 41.273438 24.121094 41.25 24.347656 C 41.199219 24.808594 41.203125 25.21875 41.171875 25.558594 C 41.132812 26.234375 41.085938 26.628906 41.027344 26.628906 C 40.96875 26.628906 40.910156 26.234375 40.863281 25.558594 C 40.84375 25.214844 40.800781 24.8125 40.816406 24.332031 C 40.824219 24.09375 40.808594 23.839844 40.839844 23.570312 C 40.875 23.304688 40.910156 23.027344 40.945312 22.730469 L 40.964844 22.5625 L 41.15625 22.53125 C 42.132812 22.359375 43.183594 22.5625 44.234375 22.613281 C 48.019531 22.632812 51.128906 22.75 51.128906 22.914062 " fill-opacity="1" fill-rule="nonzero"/><path fill="#000000" d="M 35.332031 37.5 C 35.613281 38.257812 35.550781 38.972656 35.511719 39.570312 C 35.488281 39.875 35.460938 40.160156 35.445312 40.414062 C 35.425781 40.671875 35.441406 40.914062 35.441406 41.144531 C 35.453125 41.597656 35.425781 41.976562 35.394531 42.234375 C 35.367188 42.492188 35.335938 42.632812 35.292969 42.632812 C 35.253906 42.628906 35.210938 42.488281 35.171875 42.234375 C 35.132812 41.980469 35.097656 41.625 35.035156 41.167969 C 35.007812 40.945312 34.972656 40.691406 34.96875 40.410156 C 34.960938 40.128906 34.972656 39.84375 34.980469 39.542969 C 34.992188 39.039062 35.003906 38.492188 34.878906 37.996094 C 34.316406 38.207031 33.804688 38.519531 33.339844 38.796875 C 32.828125 39.121094 32.375 39.4375 31.988281 39.695312 C 31.207031 40.21875 30.695312 40.5 30.648438 40.433594 C 30.601562 40.371094 31.03125 39.976562 31.738281 39.371094 C 32.097656 39.066406 32.53125 38.714844 33.046875 38.355469 C 33.570312 38.007812 34.152344 37.617188 34.878906 37.378906 L 34.976562 37.339844 L 35.234375 37.242188 L 35.332031 37.5 " fill-opacity="1" fill-rule="nonzero"/><path fill="#000000" d="M 35.351562 43.597656 C 35.363281 43.683594 34.855469 43.804688 34.039062 43.996094 C 33.832031 44.042969 33.609375 44.101562 33.367188 44.160156 C 33.304688 44.175781 33.246094 44.191406 33.183594 44.207031 C 33.128906 44.226562 33.074219 44.246094 33.019531 44.269531 C 32.898438 44.3125 32.777344 44.355469 32.648438 44.402344 C 32.527344 44.453125 32.390625 44.488281 32.269531 44.550781 C 32.144531 44.617188 32.015625 44.679688 31.890625 44.75 C 31.761719 44.820312 31.621094 44.871094 31.5 44.960938 C 31.378906 45.046875 31.253906 45.132812 31.128906 45.222656 C 30.125 45.933594 29.429688 46.863281 28.941406 47.523438 C 28.691406 47.851562 28.492188 48.136719 28.351562 48.324219 C 28.203125 48.511719 28.101562 48.605469 28.066406 48.582031 C 28.035156 48.566406 28.0625 48.433594 28.152344 48.210938 C 28.238281 47.992188 28.378906 47.679688 28.59375 47.308594 C 29.007812 46.566406 29.683594 45.546875 30.789062 44.753906 C 30.925781 44.660156 31.0625 44.566406 31.199219 44.472656 C 31.332031 44.378906 31.488281 44.324219 31.628906 44.246094 C 31.769531 44.179688 31.910156 44.113281 32.046875 44.042969 C 32.183594 43.980469 32.335938 43.949219 32.472656 43.902344 C 32.609375 43.859375 32.742188 43.820312 32.878906 43.777344 C 32.945312 43.761719 32.992188 43.742188 33.082031 43.722656 C 33.144531 43.714844 33.207031 43.703125 33.269531 43.691406 C 33.515625 43.660156 33.746094 43.625 33.957031 43.59375 C 34.800781 43.503906 35.339844 43.527344 35.351562 43.597656 " fill-opacity="1" fill-rule="nonzero"/><path fill="#000000" d="M 33.050781 52.148438 C 33.976562 52.050781 34.144531 50.753906 34.144531 50.035156 C 34.109375 49.3125 33.835938 48.335938 32.898438 48.902344 C 32.382812 49.210938 32.066406 49.785156 32.03125 50.378906 C 31.992188 51.027344 32.105469 52.246094 33.050781 52.148438 Z M 33.203125 47.753906 C 34.660156 47.546875 35.113281 48.839844 35.175781 50.035156 C 35.175781 51.441406 34.527344 53.253906 32.835938 53.160156 C 31.460938 53.089844 30.855469 51.566406 31 50.378906 C 31.152344 49.121094 31.84375 47.953125 33.203125 47.753906 " fill-opacity="1" fill-rule="nonzero"/><g fill="#000000" fill-opacity="1"><g transform="translate(39.216795, 36.399997)"><g><path d="M 0.296875 -0.203125 C 0.296875 -0.296875 0.316406 -0.363281 0.359375 -0.40625 C 0.398438 -0.445312 0.457031 -0.46875 0.53125 -0.46875 C 0.601562 -0.46875 0.660156 -0.445312 0.703125 -0.40625 C 0.742188 -0.363281 0.765625 -0.296875 0.765625 -0.203125 C 0.765625 -0.117188 0.742188 -0.0507812 0.703125 0 C 0.660156 0.0390625 0.601562 0.0625 0.53125 0.0625 C 0.457031 0.0625 0.398438 0.0390625 0.359375 0 C 0.316406 -0.0390625 0.296875 -0.109375 0.296875 -0.203125 Z M 0.296875 -0.203125 "/></g></g></g></svg>